<!-- Generated by IcoMoon.io -->
<svg version="1.1" xmlns="http://www.w3.org/2000/svg" viewBox="0 0 34 32">
<title>heart_empty-01</title>
<path d="M17.070 32.035c-0.898 0-0.898 0-7.306-6.383-2.484-2.339-4.8-4.757-6.988-7.288l-0.105-0.124c-2.364-3.475-3.192-6.809-2.471-9.894 1.079-4.822 5.322-8.371 10.395-8.371 0.503 0 0.998 0.035 1.483 0.102l-0.056-0.006c1.803 0.225 3.413 0.91 4.752 1.932l-0.024-0.017c0.149 0.109 0.28 0.217 0.404 0.333l-0.002-0.002c0.242-0.258 0.509-0.488 0.799-0.687l0.016-0.011c1.666-1.015 3.68-1.615 5.835-1.615 1.222 0 2.398 0.193 3.501 0.55l-0.080-0.022c3.514 1.165 6.143 4.089 6.869 7.701l0.011 0.065c0.733 3.085-0.095 6.419-2.471 9.894-2.288 2.658-4.605 5.075-7.043 7.365l-0.050 0.047c-6.395 6.36-6.395 6.36-7.246 6.383zM10.698 3.594c-0.047-0.001-0.102-0.002-0.157-0.002-3.357 0-6.161 2.367-6.833 5.524l-0.008 0.046c-0.485 2.081 0.166 4.457 1.95 7.093 0.839 1.182 8.665 8.96 11.537 11.715 2.873-2.754 10.639-10.497 11.526-11.715 1.785-2.624 2.447-5 1.95-7.093v0c-0.457-2.436-2.167-4.385-4.421-5.175l-0.047-0.014c-0.713-0.239-1.534-0.377-2.387-0.377-1.452 0-2.811 0.399-3.973 1.094l0.035-0.020-0.343 0.331c-0.479 0.581-1.113 1.017-1.84 1.246l-0.028 0.007c-0.088 0.009-0.191 0.014-0.294 0.014-0.976 0-1.849-0.44-2.433-1.132l-0.004-0.005-0.248-0.236c-0.842-0.647-1.871-1.093-2.993-1.249l-0.034-0.004c-0.274-0.045-0.604-0.079-0.939-0.094l-0.018-0.001z"></path>
</svg>
